<svg width="21" height="21" viewBox="0 0 21 21" fill="none" xmlns="http://www.w3.org/2000/svg">
<g clip-path="url(#clip0_175_862)">
<path d="M17.8556 13.46C17.789 13.3798 17.7236 13.2996 17.6595 13.2222C16.7772 12.1551 16.2434 11.511 16.2434 8.48993C16.2434 6.92587 15.8692 5.64253 15.1317 4.68003C14.5879 3.96899 13.8528 3.42959 12.8839 3.03095C12.8714 3.02402 12.8603 3.01492 12.851 3.00408C12.5025 1.83705 11.5488 1.05542 10.4732 1.05542C9.3976 1.05542 8.44433 1.83705 8.09582 3.00288C8.08652 3.01332 8.07554 3.02213 8.06334 3.02895C5.80226 3.95976 4.70341 5.7456 4.70341 8.48873C4.70341 11.511 4.17043 12.1551 3.28733 13.221C3.22316 13.2984 3.1578 13.377 3.09122 13.4588C2.91926 13.6662 2.8103 13.9185 2.77725 14.1859C2.7442 14.4533 2.78844 14.7245 2.90474 14.9676C3.15218 15.4889 3.67955 15.8126 4.28151 15.8126H16.6693C17.2684 15.8126 17.7922 15.4893 18.0405 14.9704C18.1572 14.7273 18.2019 14.4558 18.1691 14.1881C18.1364 13.9205 18.0276 13.6678 17.8556 13.46ZM10.4732 19.0221C11.0527 19.0216 11.6213 18.8643 12.1187 18.5668C12.616 18.2694 13.0236 17.8429 13.2981 17.3325C13.3111 17.308 13.3175 17.2807 13.3167 17.253C13.3159 17.2253 13.308 17.1984 13.2937 17.1747C13.2794 17.151 13.2592 17.1314 13.2351 17.1178C13.211 17.1042 13.1838 17.0971 13.1562 17.0971H7.79103C7.76333 17.097 7.73607 17.1041 7.71192 17.1176C7.68777 17.1312 7.66754 17.1508 7.6532 17.1745C7.63886 17.1982 7.63091 17.2252 7.63012 17.2529C7.62932 17.2806 7.63571 17.308 7.64866 17.3325C7.92319 17.8428 8.33069 18.2693 8.82797 18.5667C9.32524 18.8642 9.89374 19.0215 10.4732 19.0221Z" fill="white" fill-opacity="0.8"/>
<circle cx="16.9999" cy="3.93328" r="3.73333" fill="#FF1C1C"/>
</g>
<defs>
<clipPath id="clip0_175_862">
<rect width="20.5333" height="20.5333" fill="white" transform="translate(0.199951 0.199951)"/>
</clipPath>
</defs>
</svg>
