<svg width="24" height="24" viewBox="0 0 24 24" fill="none" xmlns="http://www.w3.org/2000/svg">
<g clip-path="url(#clip0_175_708)">
<path fill-rule="evenodd" clip-rule="evenodd" d="M10.0564 3.288C11.0408 2.3034 12.376 1.75016 13.7684 1.75H16.4684C16.6673 1.75 16.858 1.82902 16.9987 1.96967C17.1393 2.11032 17.2184 2.30109 17.2184 2.5V6.1C17.2184 6.29891 17.1393 6.48968 16.9987 6.63033C16.858 6.77098 16.6673 6.85 16.4684 6.85H13.7684C13.7487 6.85 13.7292 6.85388 13.711 6.86142C13.6928 6.86896 13.6762 6.88 13.6623 6.89393C13.6484 6.90786 13.6373 6.9244 13.6298 6.9426C13.6222 6.9608 13.6184 6.9803 13.6184 7V8.95H16.4684C16.5824 8.94994 16.6949 8.97587 16.7974 9.02583C16.8999 9.07579 16.9896 9.14846 17.0598 9.23832C17.13 9.32817 17.1788 9.43285 17.2025 9.54439C17.2261 9.65593 17.224 9.77139 17.1964 9.882L16.2964 13.482C16.2558 13.6443 16.162 13.7884 16.0301 13.8913C15.8982 13.9942 15.7357 14.0501 15.5684 14.05H13.6184V20.5C13.6184 20.6989 13.5393 20.8897 13.3987 21.0303C13.258 21.171 13.0673 21.25 12.8684 21.25H9.26836C9.06945 21.25 8.87868 21.171 8.73803 21.0303C8.59738 20.8897 8.51836 20.6989 8.51836 20.5V14.05H6.56836C6.36945 14.05 6.17868 13.971 6.03803 13.8303C5.89738 13.6897 5.81836 13.4989 5.81836 13.3V9.7C5.81836 9.60151 5.83776 9.50398 5.87545 9.41299C5.91314 9.32199 5.96839 9.23931 6.03803 9.16967C6.10767 9.10003 6.19035 9.04478 6.28135 9.00709C6.37234 8.9694 6.46987 8.95 6.56836 8.95H8.51836V7C8.51852 5.60768 9.07176 4.27244 10.0564 3.288ZM13.7684 3.25C12.7738 3.25 11.82 3.64509 11.1167 4.34835C10.4134 5.05161 10.0184 6.00544 10.0184 7V9.7C10.0184 9.89891 9.93934 10.0897 9.79869 10.2303C9.65804 10.371 9.46727 10.45 9.26836 10.45H7.31836V12.55H9.26836C9.46727 12.55 9.65804 12.629 9.79869 12.7697C9.93934 12.9103 10.0184 13.1011 10.0184 13.3V19.75H12.1184V13.3C12.1184 13.1011 12.1974 12.9103 12.338 12.7697C12.4787 12.629 12.6694 12.55 12.8684 12.55H14.9824L15.5074 10.45H12.8684C12.6694 10.45 12.4787 10.371 12.338 10.2303C12.1974 10.0897 12.1184 9.89891 12.1184 9.7V7C12.1184 6.56239 12.2922 6.14271 12.6016 5.83327C12.9111 5.52384 13.3308 5.35 13.7684 5.35H15.7184V3.25H13.7684Z" fill="white"/>
</g>
<defs>
<clipPath id="clip0_175_708">
<rect width="24" height="24" fill="white"/>
</clipPath>
</defs>
</svg>
