<svg width="24" height="24" viewBox="0 0 24 24" fill="none" xmlns="http://www.w3.org/2000/svg">
<g clip-path="url(#clip0_175_712)">
<path d="M11.5684 15.5C12.6292 15.5 13.6466 15.0786 14.3968 14.3284C15.1469 13.5783 15.5684 12.5609 15.5684 11.5C15.5684 10.4391 15.1469 9.42172 14.3968 8.67157C13.6466 7.92143 12.6292 7.5 11.5684 7.5C10.5075 7.5 9.49008 7.92143 8.73993 8.67157C7.98979 9.42172 7.56836 10.4391 7.56836 11.5C7.56836 12.5609 7.98979 13.5783 8.73993 14.3284C9.49008 15.0786 10.5075 15.5 11.5684 15.5Z" stroke="white" stroke-width="1.5" stroke-linecap="round" stroke-linejoin="round"/>
<path d="M2.56836 15.5V7.5C2.56836 6.17392 3.09514 4.90215 4.03283 3.96447C4.97051 3.02678 6.24228 2.5 7.56836 2.5H15.5684C16.8944 2.5 18.1662 3.02678 19.1039 3.96447C20.0416 4.90215 20.5684 6.17392 20.5684 7.5V15.5C20.5684 16.8261 20.0416 18.0979 19.1039 19.0355C18.1662 19.9732 16.8944 20.5 15.5684 20.5H7.56836C6.24228 20.5 4.97051 19.9732 4.03283 19.0355C3.09514 18.0979 2.56836 16.8261 2.56836 15.5Z" stroke="white" stroke-width="1.5"/>
<path d="M17.0684 6.01002L17.0784 5.99902" stroke="white" stroke-width="1.5" stroke-linecap="round" stroke-linejoin="round"/>
</g>
<defs>
<clipPath id="clip0_175_712">
<rect width="24" height="24" fill="white"/>
</clipPath>
</defs>
</svg>
