<svg width="24" height="24" viewBox="0 0 24 24" fill="none" xmlns="http://www.w3.org/2000/svg">
<path d="M1.5 7.125C1.5 6.22989 1.85558 5.37145 2.48851 4.73851C3.12145 4.10558 3.97989 3.75 4.875 3.75H19.125C20.0201 3.75 20.8785 4.10558 21.5115 4.73851C22.1444 5.37145 22.5 6.22989 22.5 7.125V16.875C22.5 17.7701 22.1444 18.6285 21.5115 19.2615C20.8785 19.8944 20.0201 20.25 19.125 20.25H4.875C3.97989 20.25 3.12145 19.8944 2.48851 19.2615C1.85558 18.6285 1.5 17.7701 1.5 16.875V7.125ZM4.875 5.25C4.37772 5.25 3.90081 5.44754 3.54917 5.79917C3.19754 6.15081 3 6.62772 3 7.125V8.25H21V7.125C21 6.62772 20.8025 6.15081 20.4508 5.79917C20.0992 5.44754 19.6223 5.25 19.125 5.25H4.875ZM3 16.875C3 17.3723 3.19754 17.8492 3.54917 18.2008C3.90081 18.5525 4.37772 18.75 4.875 18.75H19.125C19.6223 18.75 20.0992 18.5525 20.4508 18.2008C20.8025 17.8492 21 17.3723 21 16.875V9.75H3V16.875ZM15.75 14.25H18C18.1989 14.25 18.3897 14.329 18.5303 14.4697C18.671 14.6103 18.75 14.8011 18.75 15C18.75 15.1989 18.671 15.3897 18.5303 15.5303C18.3897 15.671 18.1989 15.75 18 15.75H15.75C15.5511 15.75 15.3603 15.671 15.2197 15.5303C15.079 15.3897 15 15.1989 15 15C15 14.8011 15.079 14.6103 15.2197 14.4697C15.3603 14.329 15.5511 14.25 15.75 14.25Z" fill="white" fill-opacity="0.8"/>
</svg>
