<svg width="24" height="24" viewBox="0 0 24 24" fill="none" xmlns="http://www.w3.org/2000/svg">
<path fill-rule="evenodd" clip-rule="evenodd" d="M15.021 3.34297C15.53 3.25597 16.099 3.22697 16.635 3.31797C17.5898 3.47924 18.4744 3.9226 19.175 4.59097C19.631 4.60097 20.08 4.51097 20.477 4.38297C20.8607 4.25784 21.2291 4.08977 21.575 3.88197L21.584 3.87597C21.728 3.78002 21.9008 3.73682 22.073 3.75369C22.2452 3.77055 22.4063 3.84645 22.5289 3.96851C22.6516 4.09057 22.7283 4.25129 22.746 4.42342C22.7637 4.59555 22.7213 4.76851 22.626 4.91297C22.419 5.22797 22.13 5.78997 21.807 6.41997L21.652 6.72097C21.467 7.08097 21.277 7.44497 21.1 7.75697C20.989 7.95297 20.87 8.15197 20.75 8.32397V8.59797C20.7623 10.2366 20.4481 11.8613 19.8258 13.3772C19.2034 14.8931 18.2854 16.2699 17.1252 17.4271C15.965 18.5844 14.586 19.499 13.0685 20.1176C11.5511 20.7362 9.92564 21.0463 8.28703 21.03C5.91248 21.0321 3.58789 20.348 1.59304 19.06C1.45045 18.9677 1.34338 18.8299 1.28935 18.6689C1.23531 18.5079 1.23751 18.3333 1.29558 18.1737C1.35365 18.0142 1.46415 17.879 1.60902 17.7904C1.75388 17.7018 1.92452 17.665 2.09303 17.686C3.4709 17.8507 4.86741 17.6284 6.12603 17.044C5.51197 16.7648 4.96276 16.3608 4.5134 15.8577C4.06404 15.3547 3.72438 14.7635 3.51604 14.122C3.47634 13.9991 3.46901 13.8682 3.49476 13.7417C3.52051 13.6152 3.57847 13.4975 3.66304 13.4L3.67304 13.39C3.16542 12.9377 2.7586 12.3838 2.47899 11.7641C2.19938 11.1444 2.05323 10.4728 2.05003 9.79297V9.74097C2.04996 9.57632 2.10407 9.41622 2.20401 9.28538C2.30395 9.15454 2.44417 9.06021 2.60303 9.01697C2.26441 8.34131 2.08872 7.59573 2.09003 6.83997C2.08947 5.98314 2.31359 5.14114 2.74004 4.39797C2.80062 4.29247 2.88596 4.20329 2.9887 4.13813C3.09143 4.07297 3.20848 4.03378 3.32973 4.02394C3.45099 4.01409 3.57282 4.0339 3.68472 4.08164C3.79662 4.12938 3.89523 4.20362 3.97203 4.29797C5.72123 6.4529 8.22722 7.85863 10.978 8.22797C10.9542 7.32815 11.1811 6.43944 11.6336 5.6613C12.0861 4.88316 12.7462 4.24629 13.54 3.82197C13.942 3.60797 14.474 3.43697 15.022 3.34297H15.021ZM3.74304 10.891C3.93722 11.4375 4.26997 11.9242 4.70872 12.3036C5.14747 12.6829 5.67719 12.9418 6.24603 13.055C6.40992 13.0876 6.55821 13.1741 6.66737 13.3006C6.77653 13.4271 6.84031 13.5865 6.84858 13.7534C6.85685 13.9203 6.80914 14.0852 6.71303 14.2219C6.61691 14.3586 6.47789 14.4593 6.31803 14.508C6.04603 14.591 5.76704 14.648 5.48404 14.681C5.79128 15.0773 6.18339 15.3998 6.63158 15.6247C7.07977 15.8497 7.57265 15.9714 8.07404 15.981C8.22869 15.9839 8.37866 16.0345 8.5034 16.126C8.62814 16.2175 8.72155 16.3453 8.77082 16.4919C8.8201 16.6385 8.82284 16.7968 8.77866 16.945C8.73448 17.0933 8.64554 17.2242 8.52403 17.32C7.48128 18.1404 6.26951 18.7193 4.97603 19.015C6.0469 19.3577 7.16465 19.5315 8.28903 19.53H8.29804C9.73805 19.5452 11.1666 19.2732 12.5004 18.73C13.8341 18.1868 15.0462 17.3833 16.0658 16.3663C17.0855 15.3494 17.8922 14.1394 18.439 12.8072C18.9857 11.4749 19.2614 10.047 19.25 8.60697V8.07197C19.2499 7.88986 19.316 7.71391 19.436 7.57697C19.506 7.49797 19.626 7.31597 19.796 7.01697C19.956 6.73497 20.134 6.39497 20.319 6.03597L20.352 5.96997C19.8297 6.08752 19.2918 6.12027 18.759 6.06697C18.5789 6.04734 18.4119 5.96315 18.289 5.82997C17.7861 5.28465 17.1165 4.92167 16.385 4.79797C16.0161 4.74578 15.6412 4.75423 15.275 4.82297C14.9181 4.87852 14.5716 4.98741 14.247 5.14597C13.5927 5.49557 13.0729 6.05249 12.7692 6.72936C12.4655 7.40623 12.3951 8.16476 12.569 8.88597C12.5964 8.99937 12.5969 9.1176 12.5706 9.23125C12.5443 9.3449 12.4918 9.45085 12.4173 9.54065C12.3428 9.63046 12.2485 9.70165 12.1416 9.74858C12.0348 9.79551 11.9185 9.81687 11.802 9.81097C8.72962 9.65556 5.82489 8.36271 3.65304 6.18397C3.61084 6.40041 3.58974 6.62045 3.59003 6.84097V6.84297C3.58891 7.39371 3.724 7.93619 3.98326 8.4221C4.24253 8.908 4.61793 9.32225 5.07604 9.62797C5.21056 9.71851 5.31212 9.85022 5.36549 10.0033C5.41885 10.1565 5.42115 10.3228 5.37204 10.4773C5.32293 10.6319 5.22505 10.7663 5.09308 10.8605C4.96111 10.9548 4.80215 11.0037 4.64003 11C4.33824 10.9916 4.03791 10.9558 3.74304 10.891Z" fill="white"/>
</svg>
